<svg width="280" height="288" viewBox="0 0 280 288" fill="none" xmlns="http://www.w3.org/2000/svg">
<g id="visual-protect-your-data">
<g id="background">
<path id="Vector" d="M191.403 150.703C205.497 162.392 227.195 180.316 230.577 198.575C237.906 238.128 189.609 276.197 155.428 285.493C92.1745 302.693 36.848 227.647 11.756 178.74C-7.77917 140.648 -6.69766 104.005 43.889 96.2969C93.4516 88.7497 154.001 119.698 191.392 150.703H191.403Z" fill="url(#paint0_linear_2304_17437)"/>
<path id="Vector_2" d="M136.399 95.6641C126.298 88.8073 110.732 78.3034 107.315 66.3844C99.9172 40.5907 129.542 12.2198 151.643 3.85582C192.542 -11.6181 234.086 34.6542 253.886 65.5331C269.302 89.5781 270.925 113.98 237.837 122.332C205.405 130.524 163.217 113.853 136.411 95.6641H136.399Z" fill="url(#paint1_linear_2304_17437)"/>
<path id="Vector_3" d="M193.509 19.5942C177.206 13.6693 160.145 16.5224 144.59 23.4253C139.206 25.6112 133.879 28.3149 127.966 30.7079C127.701 30.8229 127.425 30.4318 127.678 30.2362C132.188 26.198 137.02 22.4819 142.289 19.4447C152.713 13.2666 165.161 9.59656 177.298 11.8515C183.304 12.9214 189.137 15.2799 193.888 19.1686C194.141 19.4332 193.865 19.7898 193.509 19.6057V19.5942Z" fill="white"/>
<path id="Vector_4" d="M174.951 261.23C181.912 253.142 189.01 246.273 195.936 238.577C201.85 232.111 207.372 225.22 212.503 218.087C213.297 216.971 214.137 215.82 215.091 214.704C215.264 214.486 215.655 214.681 215.563 214.957C211.479 230.431 201.056 243.524 188.527 253.176C184.351 256.421 179.933 259.354 175.204 261.759C174.951 261.885 174.664 261.552 174.871 261.333L174.951 261.241V261.23Z" fill="white"/>
</g>
<g id="phone">
<g id="Vector_5">
<path d="M99.7349 69.822L87.258 234.605C86.8502 239.991 90.8854 244.687 96.2708 245.095L162.097 250.079C167.482 250.487 172.179 246.452 172.586 241.066L185.063 76.2828C185.471 70.8974 181.436 66.2011 176.051 65.7934L110.224 60.8092C104.839 60.4014 100.143 64.4366 99.7349 69.822Z" fill="white"/>
<path d="M162.147 250.254C145.879 248.931 113.102 246.63 96.8229 245.491C90.99 245.48 86.0774 239.865 86.8827 234.055L90.2191 185.045C92.5431 154.362 96.2476 99.8749 98.5025 69.7093C98.8477 63.7613 104.462 58.8833 110.422 59.4355L175.746 64.0605L176.252 64.095C182.188 64.4401 187.159 69.8589 186.905 75.8184C185.306 99.7253 182.396 134.562 180.336 158.538C178.841 174.771 175.884 207.537 174.4 223.77L173.031 240.084C173.123 245.779 167.9 250.887 162.147 250.254ZM162.17 249.909C167.715 250.381 172.593 245.549 172.421 240.038L173.525 223.701L175.516 191.016C177.184 161.886 179.83 122.079 182.073 92.995L183.35 76.6697C184.006 71.9297 180.29 67.5694 175.493 67.4774L110.214 62.1967C105.728 61.748 101.425 65.418 101.137 69.9279C98.7442 99.8634 94.3724 154.741 91.9449 185.195L87.8606 234.147C87.0783 239.52 91.4271 244.674 96.8918 244.778C113.171 246.101 145.902 248.759 162.182 249.921L162.17 249.909Z" fill="#202EA7"/>
</g>
<path id="Vector_6" d="M157.202 73.2397L127.662 71.003C126.851 70.9416 126.144 71.5493 126.082 72.3603L126.054 72.7388C125.992 73.5498 126.6 74.257 127.411 74.3184L156.951 76.5551C157.762 76.6165 158.469 76.0089 158.531 75.1979L158.559 74.8193C158.621 74.0083 158.013 73.3011 157.202 73.2397Z" fill="#202EA7"/>
</g>
<g id="lock">
<path d="M80.4283 174.99C80.4283 174.99 79.784 136.322 55.3824 140.429C32.0506 144.352 41.289 179.776 41.289 179.776L47.6742 178.993C47.6742 178.993 40.7713 149.46 56.4293 146.653C72.8122 143.719 73.9857 175.772 73.9857 175.772L80.4283 174.99Z" fill="white"/>
<path d="M82.315 174.632L38.7599 179.957C31.6078 180.831 26.5187 187.338 27.3931 194.49L30.9783 223.816C31.8526 230.968 38.3594 236.057 45.5115 235.183L89.0665 229.858C96.2186 228.984 101.308 222.477 100.433 215.325L96.8481 185.999C95.9738 178.847 89.4671 173.757 82.315 174.632Z" fill="url(#paint2_linear_2304_17437)"/>
<path d="M89.0915 230.098C75.3202 231.8 60.2259 233.963 46.6157 236.218C38.6199 238.082 30.2213 232.33 29.0709 224.127L27.9319 217.063C26.8044 210.263 25.631 202.716 24.6646 195.848C23.5256 190.13 25.7345 183.952 30.3479 180.351C32.6258 178.476 35.4675 177.325 38.3782 176.934L52.5866 175.312C61.7674 174.426 73.8936 173.103 82.9939 172.528C90.564 172.137 97.651 178.326 98.2032 185.873C98.7784 192.788 99.3996 200.392 100.032 207.261C100.193 209.769 101.079 215.556 100.838 218.018C100.309 224.161 95.2579 229.465 89.1028 230.086L89.0915 230.098ZM89.0569 229.753C94.9934 229.085 99.906 223.943 100.297 217.983C100.481 215.648 99.4687 209.769 99.2386 207.364L97.4784 193.167C96.8571 189.049 96.9032 182.974 93.9004 179.695C90.9897 175.933 86.0081 174.242 81.3717 175.093L38.7924 180.362C31.6019 181.11 26.3903 188.416 27.8169 195.468C28.3576 199.955 29.8302 212.116 30.3824 216.764C31.1302 221.412 30.7505 226.554 33.9143 230.236C36.8136 234.009 41.7952 235.724 46.4431 234.884L89.0339 229.741L89.0569 229.753Z" fill="#202EA7"/>
<path d="M40.9439 179.764C37.3313 168.42 35.4447 153.775 43.9122 143.984C48.5256 139.095 55.7276 137.219 62.2738 138.416C77.6212 141.683 81.2222 162.15 80.1982 175.07C79.2548 161.08 74.584 137.979 55.9692 140.533C42.1519 142.017 38.6774 156.018 39.4942 167.891C39.7128 171.872 40.2537 175.841 41.174 179.718C41.2201 179.845 40.9784 179.925 40.9554 179.776L40.9439 179.764Z" fill="#202EA7"/>
<path d="M47.329 178.982C44.4873 169.951 42.4969 159.251 47.398 150.335C51.1945 143.685 61.4338 142.282 66.6685 147.988C73.4448 155.489 74.2272 166.304 73.859 175.738C73.859 175.876 73.6405 175.876 73.629 175.738C73.4564 172.62 73.0652 169.502 72.49 166.43C71.2705 160.436 69.5908 153.982 65.173 149.541C60.7666 144.916 52.4602 146.101 49.2273 151.508C47.5591 154.108 46.7653 157.215 46.3857 160.287C45.6724 166.488 46.305 172.815 47.559 178.913C47.5936 179.051 47.3635 179.12 47.3405 178.97L47.329 178.982Z" fill="#202EA7"/>
<path d="M71.1324 197.769C70.5572 193.087 66.3121 189.762 61.6296 190.337C56.9587 190.912 53.6222 195.158 54.1974 199.84C54.6001 203.096 56.7975 205.661 59.6622 206.754L60.8127 216.188C61.0773 218.351 63.0447 219.893 65.2076 219.628C67.3705 219.364 68.9121 217.396 68.6475 215.234L67.497 205.8C70.0166 204.051 71.5351 201.037 71.1324 197.781V197.769Z" fill="#DADEFF"/>
<path d="M71.0174 197.781C70.2811 191.51 62.5384 188.565 58.0285 192.891C54.0709 196.354 55.4744 203.211 60.3754 204.844C61.1117 205.109 61.5949 205.765 61.6755 206.501C62.1242 209.677 62.4463 212.921 62.7109 216.119C62.7339 216.464 62.8834 216.786 63.079 217.086C64.3791 219.041 67.5314 217.937 67.5774 215.59C67.6005 215.176 67.52 214.186 67.5085 213.703C67.3704 211.069 67.3013 208.434 67.1057 205.811C67.1057 205.684 67.1632 205.558 67.2668 205.489C69.8669 203.936 71.374 200.806 71.0058 197.792L71.0174 197.781ZM71.2475 197.758C71.7768 200.691 69.8554 204.683 67.635 205.776L68.6129 213.565C68.774 214.865 69.0961 216.28 68.4403 217.511C67.2553 220.157 63.3552 220.641 61.5605 218.363C60.6171 217.327 60.571 215.866 60.41 214.566L59.4436 206.777L59.5817 206.961C56.6825 205.88 54.4504 203.188 54.0363 200.116C52.7592 188.531 69.3723 186.23 71.236 197.758H71.2475Z" fill="#202EA7"/>
</g>
<g id="Group">
<path id="Vector_7" d="M119.783 108.093L110.261 107.372C109.444 107.31 108.731 107.92 108.67 108.734C108.608 109.548 109.22 110.258 110.038 110.32L119.56 111.041C120.377 111.103 121.089 110.493 121.151 109.679C121.213 108.865 120.6 108.155 119.783 108.093Z" fill="#DADEFF"/>
<path id="Vector_8" d="M136.254 109.356L126.732 108.635C125.915 108.574 125.202 109.183 125.14 109.998C125.079 110.812 125.691 111.522 126.509 111.584L136.03 112.305C136.848 112.367 137.56 111.757 137.622 110.943C137.683 110.128 137.071 109.418 136.254 109.356Z" fill="#DADEFF"/>
<path id="Vector_9" d="M152.897 110.609L143.375 109.888C142.558 109.826 141.846 110.436 141.784 111.25C141.722 112.064 142.335 112.774 143.152 112.836L152.674 113.557C153.491 113.619 154.204 113.009 154.265 112.195C154.327 111.381 153.715 110.671 152.897 110.609Z" fill="#DADEFF"/>
<path id="Vector_10" d="M168.923 111.827L159.402 111.106C158.584 111.044 157.872 111.654 157.81 112.468C157.749 113.282 158.361 113.992 159.179 114.054L168.7 114.775C169.518 114.837 170.23 114.227 170.292 113.413C170.353 112.599 169.741 111.889 168.923 111.827Z" fill="#DADEFF"/>
</g>
<g id="password">
<path d="M270.73 135.977L168.647 128.246L163.401 122.056L157.131 127.371L149.388 126.785C144.004 126.382 139.299 130.409 138.896 135.804L136.054 173.345C135.652 178.729 139.678 183.434 145.074 183.837L266.415 193.029C271.8 193.432 276.505 189.405 276.908 184.01L279.749 146.469C280.152 141.085 276.125 136.38 270.73 135.977Z" fill="white"/>
<path d="M270.718 136.15C242.255 133.883 197.363 131.513 168.509 130.029C168.015 130.006 167.578 129.764 167.278 129.408L161.894 123.333L164.667 123.563L158.512 129.028C158.063 129.419 157.511 129.58 156.959 129.534L152.805 129.316C152.035 129.293 149.987 129.155 149.181 129.12C146.949 129.04 144.706 129.972 143.291 131.674C141.749 133.4 141.496 135.586 141.439 137.841L140.921 146.147C140.38 155.052 139.747 164.705 139.08 173.632C138.793 177.153 141.646 180.455 145.132 180.754C146.892 180.915 150.493 181.191 152.311 181.34C188.286 184.102 228.219 188.335 264.149 191.821L266.22 192.028C270.707 192.673 275.216 189.428 276.091 184.964C276.298 183.86 276.424 182.031 276.528 180.903C277.23 171.113 278.783 157.399 279.393 147.746C280.451 142.224 276.413 136.518 270.707 136.173L270.718 136.15ZM270.741 135.804C276.631 136.115 280.923 142.063 279.83 147.758L277.345 180.938C277.218 182.33 277.195 183.687 276.977 185.103C276.24 189.325 272.536 192.811 268.256 193.225C265.875 193.398 262.331 192.891 259.915 192.776C232.718 190.751 195.994 187.979 168.659 185.942C162.987 185.436 149.25 184.642 143.74 183.987C139.471 183.158 136.043 179.327 135.732 174.99C135.617 172.171 136.4 165.395 136.538 162.496L138.447 137.611C138.516 134.838 139.184 131.847 141.197 129.764C143.107 127.625 145.971 126.417 148.825 126.497C151.62 126.658 154.358 126.911 157.143 127.107L156.936 127.176L163.217 121.861C163.332 121.769 163.505 121.78 163.597 121.895L168.843 128.096C167.819 127.728 270.983 135.966 270.741 135.828V135.804Z" fill="#202EA7"/>
<path d="M164.954 155.052C166.266 154.569 167.509 154.074 168.705 153.58C169.902 153.085 170.845 152.728 171.547 152.51C172.248 152.291 172.801 152.199 173.215 152.222C173.894 152.268 174.469 152.544 174.929 153.039C175.389 153.534 175.596 154.12 175.539 154.799C175.504 155.19 175.355 155.581 175.079 155.984C174.803 156.387 174.526 156.628 174.25 156.732C171.673 157.537 168.855 158.044 165.806 158.262C166.312 158.814 166.933 159.528 167.67 160.425C168.406 161.322 168.786 161.794 168.82 161.863C169.085 162.289 169.453 162.83 169.924 163.474C170.408 164.118 170.73 164.613 170.914 164.969C171.087 165.326 171.167 165.74 171.121 166.235C171.075 166.856 170.799 167.385 170.293 167.811C169.787 168.237 169.165 168.432 168.429 168.375C167.693 168.317 166.899 167.685 166.07 166.465C165.231 165.246 164.195 163.094 162.964 160.011C161.284 162.576 160.157 164.279 159.593 165.096C159.029 165.913 158.489 166.523 157.994 166.925C157.499 167.328 156.947 167.5 156.337 167.454C155.613 167.397 155.037 167.109 154.6 166.58C154.163 166.051 153.967 165.499 154.002 164.935C154.036 164.406 154.175 164.015 154.382 163.761C156.349 161.472 158.374 159.505 160.456 157.859C158.845 157.48 157.407 157.089 156.142 156.686C154.888 156.283 153.553 155.72 152.161 155.006C151.943 154.868 151.724 154.592 151.54 154.155C151.344 153.718 151.264 153.327 151.287 152.981C151.333 152.303 151.632 151.75 152.161 151.336C152.69 150.922 153.277 150.726 153.921 150.784C154.393 150.818 154.957 151.003 155.636 151.336C156.314 151.67 157.177 152.142 158.213 152.763C159.248 153.384 160.433 154.074 161.768 154.834C161.607 153.591 161.503 152.176 161.457 150.577C161.411 148.978 161.411 147.885 161.457 147.31C161.514 146.585 161.791 145.986 162.285 145.515C162.78 145.032 163.39 144.824 164.103 144.871C164.816 144.917 165.357 145.227 165.783 145.779C166.208 146.332 166.381 147.033 166.312 147.885C166.289 148.115 166.22 148.575 166.105 149.265C165.978 149.956 165.829 150.784 165.622 151.75C165.426 152.717 165.196 153.833 164.943 155.087L164.954 155.052Z" fill="url(#paint3_linear_2304_17437)"/>
<path d="M196.087 157.411C197.398 156.928 198.64 156.433 199.837 155.938C201.033 155.443 201.977 155.087 202.679 154.868C203.381 154.65 203.933 154.558 204.347 154.581C205.026 154.627 205.601 154.903 206.061 155.397C206.521 155.892 206.728 156.479 206.671 157.158C206.636 157.549 206.487 157.94 206.211 158.343C205.935 158.745 205.658 158.987 205.382 159.09C202.805 159.896 199.987 160.402 196.938 160.621C197.444 161.173 198.065 161.886 198.802 162.783C199.538 163.681 199.918 164.153 199.952 164.222C200.217 164.647 200.585 165.188 201.057 165.832C201.54 166.477 201.862 166.971 202.046 167.328C202.219 167.685 202.299 168.099 202.253 168.593C202.207 169.215 201.931 169.744 201.425 170.17C200.918 170.595 200.297 170.791 199.561 170.733C198.825 170.676 198.031 170.043 197.202 168.823C196.363 167.604 195.327 165.453 194.096 162.369C192.416 164.935 191.289 166.638 190.725 167.454C190.162 168.271 189.621 168.881 189.126 169.284C188.631 169.686 188.079 169.859 187.469 169.813C186.745 169.755 186.169 169.468 185.732 168.939C185.295 168.409 185.099 167.857 185.134 167.293C185.168 166.764 185.306 166.373 185.514 166.12C187.481 163.83 189.506 161.863 191.588 160.218C189.977 159.838 188.539 159.447 187.274 159.044C186.02 158.642 184.685 158.078 183.293 157.365C183.075 157.227 182.856 156.951 182.672 156.513C182.476 156.076 182.396 155.685 182.419 155.34C182.465 154.661 182.764 154.109 183.293 153.695C183.822 153.28 184.409 153.085 185.053 153.142C185.525 153.177 186.089 153.361 186.768 153.695C187.446 154.028 188.309 154.5 189.345 155.121C190.38 155.743 191.565 156.433 192.9 157.192C192.739 155.95 192.635 154.535 192.589 152.935C192.543 151.336 192.543 150.243 192.589 149.668C192.647 148.943 192.923 148.345 193.417 147.873C193.912 147.39 194.522 147.183 195.235 147.229C195.948 147.275 196.489 147.586 196.915 148.138C197.341 148.69 197.513 149.392 197.444 150.243C197.421 150.473 197.352 150.934 197.237 151.624C197.11 152.314 196.961 153.142 196.754 154.109C196.558 155.075 196.328 156.191 196.075 157.445L196.087 157.411Z" fill="url(#paint4_linear_2304_17437)"/>
<path d="M227.23 159.769C228.542 159.286 229.784 158.791 230.981 158.297C232.177 157.802 233.12 157.445 233.822 157.227C234.524 157.008 235.076 156.916 235.49 156.939C236.169 156.985 236.744 157.261 237.205 157.756C237.665 158.251 237.872 158.837 237.814 159.516C237.78 159.907 237.63 160.298 237.354 160.701C237.078 161.104 236.802 161.345 236.526 161.449C233.949 162.254 231.13 162.761 228.081 162.979C228.588 163.531 229.209 164.245 229.945 165.142C230.681 166.039 231.061 166.511 231.096 166.58C231.36 167.006 231.728 167.547 232.2 168.191C232.683 168.835 233.005 169.33 233.19 169.686C233.362 170.043 233.443 170.457 233.397 170.952C233.351 171.573 233.074 172.102 232.568 172.528C232.062 172.954 231.441 173.149 230.704 173.092C229.968 173.034 229.174 172.402 228.346 171.182C227.506 169.963 226.471 167.811 225.24 164.728C223.56 167.293 222.432 168.996 221.869 169.813C221.305 170.63 220.764 171.24 220.27 171.642C219.775 172.045 219.223 172.217 218.613 172.171C217.888 172.114 217.313 171.826 216.876 171.297C216.438 170.768 216.243 170.216 216.277 169.652C216.312 169.123 216.45 168.732 216.657 168.478C218.624 166.189 220.649 164.222 222.732 162.576C221.121 162.197 219.683 161.806 218.417 161.403C217.163 161 215.829 160.437 214.437 159.723C214.218 159.585 213.999 159.309 213.815 158.872C213.62 158.435 213.539 158.044 213.562 157.698C213.608 157.02 213.907 156.467 214.437 156.053C214.966 155.639 215.553 155.443 216.197 155.501C216.669 155.535 217.232 155.72 217.911 156.053C218.59 156.387 219.453 156.859 220.488 157.48C221.524 158.101 222.709 158.791 224.043 159.551C223.882 158.308 223.778 156.893 223.732 155.294C223.686 153.695 223.686 152.602 223.732 152.027C223.79 151.302 224.066 150.703 224.561 150.232C225.056 149.749 225.665 149.541 226.379 149.588C227.092 149.634 227.633 149.944 228.058 150.496C228.484 151.049 228.657 151.75 228.588 152.602C228.565 152.832 228.496 153.292 228.38 153.982C228.254 154.673 228.104 155.501 227.897 156.467C227.702 157.434 227.472 158.55 227.218 159.804L227.23 159.769Z" fill="url(#paint5_linear_2304_17437)"/>
<path d="M262.178 171.825L246.255 170.62C245.197 170.539 244.274 171.332 244.194 172.39C244.114 173.448 244.907 174.371 245.965 174.451L261.888 175.657C262.946 175.737 263.868 174.944 263.949 173.886C264.029 172.828 263.236 171.905 262.178 171.825Z" fill="url(#paint6_linear_2304_17437)"/>
</g>
<g id="icon-face-id">
<path id="icon-face-id-shadow" d="M240.621 80.2707C254.13 80.2707 265.081 69.32 265.081 55.8115C265.081 42.3031 254.13 31.3523 240.621 31.3523C227.113 31.3523 216.162 42.3031 216.162 55.8115C216.162 69.32 227.113 80.2707 240.621 80.2707Z" fill="#DADEFF"/>
<g id="icon-face-id_2">
<path d="M238.068 75.3121C251.576 75.3121 262.527 64.3613 262.527 50.8529C262.527 37.3444 251.576 26.3937 238.068 26.3937C224.559 26.3937 213.608 37.3444 213.608 50.8529C213.608 64.3613 224.559 75.3121 238.068 75.3121Z" fill="white"/>
<path d="M218.682 65.9587C205.267 48.3908 219.027 23.4139 241.162 25.8299C258.949 27.7282 269.303 47.9306 260.375 63.4966C251.494 79.2697 229.416 80.1326 218.682 65.9472V65.9587ZM218.866 65.8206C231.947 82.1689 258.489 74.1731 261.204 53.7176C263.137 41.2118 253.587 28.7637 240.978 27.314C219.947 24.5644 205.693 48.9661 218.866 65.8091V65.8206Z" fill="#202EA7"/>
<path d="M226.39 44.7784C226.39 44.7784 226.31 44.7784 226.275 44.7784C225.711 44.7094 225.297 44.2032 225.366 43.6279L225.826 39.6818C226.056 37.6915 227.863 36.2649 229.841 36.495L233.788 36.9552C234.351 37.0242 234.766 37.5304 234.696 38.1056C234.627 38.6694 234.11 39.0835 233.546 39.0145L229.6 38.5543C228.749 38.4508 227.978 39.072 227.874 39.9234L227.414 43.8695C227.356 44.3988 226.908 44.7899 226.39 44.7899V44.7784Z" fill="#ACB4FB"/>
<path d="M250.573 47.5857C250.573 47.5857 250.493 47.5857 250.458 47.5857C249.894 47.5166 249.48 47.0104 249.549 46.4352L250.009 42.489C250.055 42.0749 249.94 41.6722 249.687 41.35C249.434 41.0279 249.066 40.8208 248.652 40.7748L244.706 40.3146C244.142 40.2456 243.728 39.7394 243.797 39.1641C243.866 38.6004 244.384 38.1862 244.947 38.2553L248.893 38.7154C249.86 38.8305 250.711 39.3022 251.321 40.0615C251.919 40.8208 252.195 41.7642 252.08 42.7306L251.62 46.6768C251.562 47.206 251.114 47.5972 250.596 47.5972L250.573 47.5857Z" fill="#ACB4FB"/>
<path d="M246.247 64.9464C246.109 64.9464 245.96 64.9464 245.822 64.9234L241.875 64.4632C241.312 64.3942 240.898 63.8879 240.967 63.3127C241.036 62.749 241.553 62.3348 242.117 62.4038L246.063 62.864C246.477 62.91 246.88 62.795 247.214 62.5419C247.536 62.2888 247.743 61.9091 247.789 61.5065L248.249 57.5603C248.318 56.9966 248.836 56.5824 249.4 56.6514C249.963 56.7205 250.378 57.2267 250.309 57.8019L249.848 61.7481C249.733 62.7145 249.262 63.5658 248.502 64.1756C247.858 64.6933 247.076 64.9579 246.259 64.9579L246.247 64.9464Z" fill="#ACB4FB"/>
<path d="M230.854 63.1746C230.854 63.1746 230.774 63.1746 230.739 63.1746L226.793 62.7144C224.802 62.4843 223.376 60.678 223.606 58.6992L224.066 54.7531C224.135 54.1893 224.653 53.7752 225.217 53.8442C225.78 53.9132 226.195 54.4194 226.126 54.9947L225.665 58.9408C225.562 59.7922 226.183 60.563 227.034 60.6665L230.981 61.1267C231.544 61.1957 231.959 61.702 231.889 62.2772C231.832 62.8064 231.383 63.1976 230.866 63.1976L230.854 63.1746Z" fill="#ACB4FB"/>
<path d="M237.711 59.0559C235.134 59.0559 233.166 57.5833 232.246 56.4328C231.889 55.9841 231.97 55.3284 232.419 54.9832C232.867 54.6266 233.512 54.7071 233.868 55.1443C234.167 55.5124 236.836 58.5957 240.955 55.9036C241.438 55.593 242.071 55.7195 242.393 56.2027C242.715 56.6859 242.577 57.3187 242.094 57.6408C240.518 58.6648 239.045 59.0559 237.722 59.0559H237.711Z" fill="#ACB4FB"/>
<path d="M236.664 54.2929C236.445 54.2929 236.227 54.2699 235.997 54.2239C235.433 54.0973 235.088 53.5451 235.203 52.9929C235.329 52.4291 235.882 52.084 236.434 52.199C236.744 52.2681 236.894 52.199 237.032 52.084C237.918 51.3132 238.125 48.2989 237.975 46.4121C237.929 45.8369 238.355 45.3422 238.93 45.2961C239.506 45.2501 240 45.6758 240.046 46.251C240.115 47.1829 240.38 51.9229 238.401 53.6371C237.906 54.0628 237.32 54.2814 236.675 54.2814L236.664 54.2929Z" fill="#ACB4FB"/>
<path d="M232.442 49.5644C232.442 49.5644 232.361 49.5644 232.315 49.5644C231.751 49.4953 231.337 48.9891 231.406 48.4139L231.694 45.9403C231.763 45.3766 232.269 44.9624 232.844 45.0315C233.408 45.1005 233.822 45.6067 233.753 46.1819L233.466 48.6555C233.408 49.1847 232.959 49.5759 232.442 49.5759V49.5644Z" fill="#ACB4FB"/>
<path d="M243.59 50.8644C243.59 50.8644 243.509 50.8644 243.475 50.8644C242.911 50.7954 242.497 50.2892 242.566 49.7139L242.853 47.2404C242.922 46.6767 243.44 46.2625 244.004 46.3315C244.568 46.4005 244.982 46.9068 244.913 47.482L244.625 49.9555C244.568 50.4847 244.119 50.8759 243.601 50.8759L243.59 50.8644Z" fill="#ACB4FB"/>
</g>
</g>
</g>
<defs>
<linearGradient id="paint0_linear_2304_17437" x1="115.661" y1="95.1479" x2="115.661" y2="288.004" gradientUnits="userSpaceOnUse">
<stop stop-color="#EEF0FE"/>
<stop offset="1" stop-color="#DADEFF"/>
</linearGradient>
<linearGradient id="paint1_linear_2304_17437" x1="185.31" y1="0.774414" x2="185.31" y2="124.475" gradientUnits="userSpaceOnUse">
<stop stop-color="#EEF0FE"/>
<stop offset="1" stop-color="#DADEFF"/>
</linearGradient>
<linearGradient id="paint2_linear_2304_17437" x1="62.6242" y1="138.066" x2="62.6242" y2="236.57" gradientUnits="userSpaceOnUse">
<stop stop-color="#7A88FF"/>
<stop offset="1" stop-color="#5A33F6"/>
</linearGradient>
<linearGradient id="paint3_linear_2304_17437" x1="207.861" y1="121.799" x2="207.861" y2="193.26" gradientUnits="userSpaceOnUse">
<stop stop-color="#7A88FF"/>
<stop offset="1" stop-color="#5A33F6"/>
</linearGradient>
<linearGradient id="paint4_linear_2304_17437" x1="207.861" y1="121.799" x2="207.861" y2="193.26" gradientUnits="userSpaceOnUse">
<stop stop-color="#7A88FF"/>
<stop offset="1" stop-color="#5A33F6"/>
</linearGradient>
<linearGradient id="paint5_linear_2304_17437" x1="207.861" y1="121.799" x2="207.861" y2="193.26" gradientUnits="userSpaceOnUse">
<stop stop-color="#7A88FF"/>
<stop offset="1" stop-color="#5A33F6"/>
</linearGradient>
<linearGradient id="paint6_linear_2304_17437" x1="207.861" y1="121.799" x2="207.861" y2="193.26" gradientUnits="userSpaceOnUse">
<stop stop-color="#7A88FF"/>
<stop offset="1" stop-color="#5A33F6"/>
</linearGradient>
</defs>
</svg>
